<?xml version="1.0" encoding="utf-8"?>
<!-- Generator: Adobe Illustrator 24.0.0, SVG Export Plug-In . SVG Version: 6.00 Build 0)  -->
<svg version="1.1" xmlns="http://www.w3.org/2000/svg" xmlns:xlink="http://www.w3.org/1999/xlink" x="0px" y="0px"
	 viewBox="0 0 64 64" enable-background="new 0 0 64 64" xml:space="preserve">
<g id="Captions">
</g>
<g id="Icons">
	<g>
		<g>
			<path fill="#0A5078" d="M56,60H8c-2.209,0-4-1.791-4-4v-2c0-2.209,1.791-4,4-4h48c2.209,0,4,1.791,4,4v2
				C60,58.209,58.209,60,56,60z"/>
		</g>
		<g>
			<g>
				<path fill="#D2AA82" d="M46,52L46,52c-1.105,0-2-0.895-2-2v-3h4v3C48,51.105,47.105,52,46,52z"/>
			</g>
			<g>
				<path fill="#DC9600" d="M48,38h-4c-1.105,0-2,0.895-2,2v5c0,1.657,1.343,3,3,3h2c1.657,0,3-1.343,3-3v-5
					C50,38.895,49.105,38,48,38z"/>
			</g>
			<g>
				<path fill="#00A0C8" d="M54,60H38v-7c0-1.657,1.343-3,3-3h10c1.657,0,3,1.343,3,3V60z"/>
			</g>
		</g>
		<g>
			<g>
				<path fill="#D2AA82" d="M18,52L18,52c-1.105,0-2-0.895-2-2v-3h4v3C20,51.105,19.105,52,18,52z"/>
			</g>
			<g>
				<path fill="#0A5078" d="M20,38h-4c-1.105,0-2,0.895-2,2v5c0,1.657,1.343,3,3,3h2c1.657,0,3-1.343,3-3v-5
					C22,38.895,21.105,38,20,38z"/>
			</g>
			<g>
				<path fill="#FAB400" d="M26,60H10v-7c0-1.657,1.343-3,3-3h10c1.657,0,3,1.343,3,3V60z"/>
			</g>
		</g>
		<g>
			<g>
				<path fill="#C80A50" d="M33,28h-2c-2.761,0-5,2.239-5,5v10c0,0.552,0.448,1,1,1h10c0.552,0,1-0.448,1-1V33
					C38,30.239,35.761,28,33,28z"/>
			</g>
			<g>
				<path fill="#C80A50" d="M40,50H24v-4c0-2.209,1.791-4,4-4h8c2.209,0,4,1.791,4,4V50z"/>
			</g>
			<g>
				<rect x="24" y="49" fill="#A00028" width="16" height="1"/>
			</g>
			<g>
				<path fill="#00A0C8" d="M28,42c0,2.209,1.791,4,4,4s4-1.791,4-4H28z"/>
			</g>
			<g>
				<path fill="#D2AA82" d="M32,44L32,44c-1.105,0-2-0.895-2-2v-3h4v3C34,43.105,33.105,44,32,44z"/>
			</g>
			<g>
				<path fill="#F0C8A0" d="M33,40h-2c-1.657,0-3-1.343-3-3v-3c0-1.105,0.895-2,2-2h1v0c0,1.105,0.895,2,2,2h3v3
					C36,38.657,34.657,40,33,40z"/>
			</g>
		</g>
		<g>
			<path fill="#FAB400" d="M48,8h-4c0-1.105-0.895-2-2-2H22c-1.105,0-2,0.895-2,2h-4c-2.209,0-4,1.791-4,4v8c0,2.209,1.791,4,4,4h4
				c0,1.105,0.895,2,2,2h20c1.105,0,2-0.895,2-2h4c2.209,0,4-1.791,4-4v-8C52,9.791,50.209,8,48,8z"/>
		</g>
		<g>
			<path fill="#0A5078" d="M22,24L22,24c0-1.105-0.895-2-2-2h-4c-1.105,0-2-0.895-2-2v-8c0-1.105,0.895-2,2-2h4c1.105,0,2-0.895,2-2
				v0h20v0c0,1.105,0.895,2,2,2h4c1.105,0,2,0.895,2,2v8c0,1.105-0.895,2-2,2h-4c-1.105,0-2,0.895-2,2v0H22z"/>
		</g>
		<g>
			<g>
				<g>
					<path fill="#00325A" d="M27,20c-0.552,0-1-0.448-1-1v-1.177c0-0.88,0.62-1.656,1.506-1.888
						c1.017-0.265,1.645-1.257,1.461-2.307c-0.138-0.787-0.81-1.458-1.596-1.596c-0.607-0.105-1.195,0.048-1.656,0.435
						C25.261,12.849,25,13.408,25,14c0,0.552-0.448,1-1,1s-1-0.448-1-1c0-1.185,0.521-2.302,1.429-3.064
						c0.908-0.762,2.105-1.079,3.288-0.873c1.613,0.283,2.937,1.607,3.22,3.22c0.366,2.085-0.892,4.058-2.926,4.588L28,19
						C28,19.552,27.552,20,27,20z"/>
				</g>
				<g>
					<circle fill="#00325A" cx="27" cy="22" r="1"/>
				</g>
			</g>
			<g>
				<g>
					<path fill="#00325A" d="M37,20c-0.552,0-1-0.448-1-1v-1.177c0-0.88,0.62-1.656,1.506-1.888
						c1.017-0.265,1.645-1.257,1.461-2.307c-0.138-0.787-0.81-1.458-1.596-1.596c-0.606-0.105-1.195,0.048-1.656,0.435
						C35.261,12.849,35,13.408,35,14c0,0.552-0.448,1-1,1s-1-0.448-1-1c0-1.185,0.521-2.302,1.429-3.064
						c0.908-0.762,2.107-1.079,3.288-0.873c1.613,0.283,2.937,1.607,3.22,3.22c0.366,2.085-0.892,4.058-2.926,4.588L38,19
						C38,19.552,37.552,20,37,20z"/>
				</g>
				<g>
					<circle fill="#00325A" cx="37" cy="22" r="1"/>
				</g>
			</g>
		</g>
		<g>
			<path fill="#00325A" d="M48,10h-4c-1.105,0-2-0.895-2-2H22c0,1.105-0.895,2-2,2h-4c-1.105,0-2,0.895-2,2v1c0-1.105,0.895-2,2-2h4
				c1.105,0,2-0.895,2-2h20c0,1.105,0.895,2,2,2h4c1.105,0,2,0.895,2,2v-1C50,10.895,49.105,10,48,10z"/>
		</g>
		<g>
			<rect x="16" y="4" fill="#C80A50" width="2" height="4"/>
		</g>
		<g>
			<rect x="46" y="4" fill="#C80A50" width="2" height="4"/>
		</g>
		<g>
			<rect x="16" y="7" fill="#A00028" width="2" height="1"/>
		</g>
		<g>
			<rect x="46" y="7" fill="#A00028" width="2" height="1"/>
		</g>
		<g>
			<g>
				<g>
					<path fill="#00A0C8" d="M27,19c-0.552,0-1-0.448-1-1v-1.177c0-0.88,0.62-1.656,1.506-1.888
						c1.017-0.265,1.645-1.257,1.461-2.307c-0.138-0.787-0.81-1.458-1.596-1.596c-0.607-0.106-1.195,0.048-1.656,0.435
						C25.261,11.849,25,12.408,25,13c0,0.552-0.448,1-1,1s-1-0.448-1-1c0-1.185,0.521-2.302,1.429-3.064
						c0.908-0.762,2.105-1.08,3.288-0.873c1.613,0.283,2.937,1.607,3.22,3.22c0.366,2.085-0.892,4.058-2.926,4.588L28,18
						C28,18.552,27.552,19,27,19z"/>
				</g>
				<g>
					<circle fill="#00A0C8" cx="27" cy="21" r="1"/>
				</g>
			</g>
			<g>
				<g>
					<path fill="#00A0C8" d="M37,19c-0.552,0-1-0.448-1-1v-1.177c0-0.88,0.62-1.656,1.506-1.888
						c1.017-0.265,1.645-1.257,1.461-2.307c-0.138-0.787-0.81-1.458-1.596-1.596c-0.606-0.106-1.195,0.048-1.656,0.435
						C35.261,11.849,35,12.408,35,13c0,0.552-0.448,1-1,1s-1-0.448-1-1c0-1.185,0.521-2.302,1.429-3.064
						c0.908-0.762,2.107-1.08,3.288-0.873c1.613,0.283,2.937,1.607,3.22,3.22c0.366,2.085-0.892,4.058-2.926,4.588L38,18
						C38,18.552,37.552,19,37,19z"/>
				</g>
				<g>
					<circle fill="#00A0C8" cx="37" cy="21" r="1"/>
				</g>
			</g>
		</g>
	</g>
</g>
</svg>
